<?xml version="1.0" encoding="utf-8"?>
<!-- Svg Vector Icons : http://www.onlinewebfonts.com/icon -->
<!DOCTYPE svg PUBLIC "-//W3C//DTD SVG 1.1//EN" "http://www.w3.org/Graphics/SVG/1.1/DTD/svg11.dtd">
<svg version="1.1" xmlns="http://www.w3.org/2000/svg" xmlns:xlink="http://www.w3.org/1999/xlink" x="0px" y="0px" viewBox="0 0 1000 1000" enable-background="new 0 0 1000 1000" xml:space="preserve">
<metadata> Svg Vector Icons : http://www.onlinewebfonts.com/icon </metadata>
<g><g transform="translate(0.000000,511.000000) scale(0.100000,-0.100000)"><path d="M4194.1,5023.2c-331.1-53.8-654-182.1-941.6-372.5c-68.3-45.5-246.3-200.7-395.3-343.5c-310.4-300.1-376.7-335.3-720.2-382.9c-254.6-37.2-399.4-74.5-585.7-149C591.1,3384.1-11.2,2392.8,117.2,1411.9c39.3-298,109.7-517.4,279.4-858.9c202.8-407.7,244.2-594,244.2-1086.5c0-314.6-4.1-356-57.9-527.7c-118-380.8-122.1-416-122.1-796.8c0-376.7,12.4-469.8,113.8-745c295.9-805,1067.9-1394.9,1955.7-1494.2c161.4-18.6,267-18.6,476,4.1c153.1,14.5,318.7,20.7,387,12.4c173.8-22.8,370.5-130.4,581.5-320.8c327-293.9,651.9-424.3,1057.5-424.3c327,0,536,62.1,863,258.7c173.8,105.6,356,163.5,513.2,163.5c66.2,0,235.9-29,376.7-62.1c753.3-184.2,1417.6-39.3,2013.6,440.8c724.3,583.6,1016.1,1568.7,722.3,2446.2c-68.3,209-147,364.2-298,600.2c-167.6,258.7-213.2,403.6-202.8,643.6c6.2,167.6,16.6,207,84.8,341.5c41.4,84.9,134.5,225.6,207,314.6c798.8,974.8,782.3,2342.7-41.4,3263.6c-387,434.6-867.1,716.1-1413.5,827.8c-285.6,60-769.9,49.7-1086.5-20.7c-360.1-78.6-521.5-37.2-925.1,233.9c-289.7,194.5-569.1,316.6-854.7,376.7C4761.2,5050.1,4409.4,5060.4,4194.1,5023.2z M4959.9,4650.7c277.3-66.2,480.1-161.4,726.4-343.5c159.3-118,391.1-229.7,556.7-267c165.6-39.3,434.6-31,676.7,18.6c753.3,157.3,1535.6-80.7,2044.7-622.9c262.8-279.4,430.5-596,531.9-1005.8c68.3-273.2,64.1-745-10.4-1022.4c-91.1-341.5-219.4-585.7-482.2-910.6C8778.1,217.7,8685-36.8,8685-388.6c0-304.2,78.6-548.4,269-827.8c115.9-171.8,217.3-391.2,273.2-589.8c64.2-235.9,64.2-730.5,0-972.7c-151.1-554.6-515.3-993.4-1024.4-1231.4c-269-126.2-488.4-173.8-821.6-173.8c-246.3-2.1-306.3,6.2-507,60c-416,113.8-823.7,70.4-1117.5-115.9c-380.8-242.1-732.6-300.1-1096.9-180c-173.8,55.9-273.2,118-444.9,277.3c-200.7,184.2-366.3,287.7-567,353.9c-155.2,51.7-190.4,55.9-447,49.7c-635.4-14.5-753.3-10.4-918.9,26.9c-347.7,80.7-654,242.1-906.5,484.3c-285.6,273.2-457.4,585.7-538.1,976.8c-57.9,277.3-43.5,662.2,33.1,910.6C976-997.1,992.6-868.8,980.2-440.4C965.7,99.8,893.2,401.9,707,724.8c-196.6,343.5-287.7,776.1-242.1,1165.1c78.7,664.3,455.3,1200.3,1049.3,1488c192.5,93.1,494.6,186.3,604.3,186.3c124.2,0,382.9,70.4,542.2,149c146.9,70.4,215.2,124.2,434.6,335.3c285.6,275.2,374.6,343.5,591.9,451.2c186.3,93.1,331.1,140.7,538.1,173.8C4423.9,4706.5,4769.5,4696.2,4959.9,4650.7z"/><path d="M4804.6,2330.7c-461.5-62.1-803-188.3-1123.7-416c-1069.9-761.6-1295.5-2202-509.1-3234.7c115.9-153.2,384.9-407.7,546.3-517.4c188.3-128.3,486.3-262.8,718.1-324.9c180.1-47.6,242.1-53.8,544.3-55.9c306.3,0,362.2,6.2,548.4,55.9c413.9,111.8,776.1,327,1080.3,641.6c289.7,300.1,471.8,614.7,577.4,991.3c66.2,238,89,674.6,49.7,923c-149,931.3-885.8,1701.2-1817,1897.8C5272.4,2320.4,4910.2,2345.2,4804.6,2330.7z M5394.5,1939.6c709.8-149,1247.9-654,1452.8-1365.9c41.4-144.9,47.6-209,45.5-527.7c0-333.2-4.1-376.7-55.9-544.3c-209-678.8-703.6-1154.8-1374.2-1322.4c-258.7-66.2-705.7-66.2-964.4,0c-670.5,167.6-1173.4,651.9-1372.1,1322.4c-76.6,260.8-91.1,678.8-33.1,958.2C3310.4,1511.2,4326.6,2163.1,5394.5,1939.6z"/><path d="M4794.3,1337.3C4130,1209,3649.8,617.2,3680.9-30.6c6.2-95.2,14.5-175.9,22.8-184.2c6.2-6.2,84.9,4.1,175.9,22.8l163.5,35.2l-10.3,149c-22.8,378.7,173.8,732.6,498.7,892c273.2,132.4,550.5,146.9,823.7,41.4c24.8-8.3,47.6,22.8,97.2,130.4c37.3,78.6,66.2,153.2,66.2,165.6c0,43.5-271.1,109.7-476,118C4935,1343.6,4823.3,1341.5,4794.3,1337.3z"/></g></g>
</svg>